<mxfile host="app.diagrams.net" modified="2024-05-05T07:03:08.919Z" agent="Mozilla/5.0 (Windows NT 10.0; Win64; x64) AppleWebKit/537.36 (KHTML, like Gecko) Chrome/124.0.0.0 Safari/537.36" etag="va_sZj2y1RQu5fVMM8f2" version="24.2.1" type="device">
  <diagram name="Page-1" id="yNyLFKjUvOLV2bvvHchC">
    <mxGraphModel dx="3425" dy="1160" grid="1" gridSize="10" guides="1" tooltips="1" connect="1" arrows="1" fold="1" page="1" pageScale="1" pageWidth="850" pageHeight="1100" math="0" shadow="0">
      <root>
        <mxCell id="0" />
        <mxCell id="1" parent="0" />
        <mxCell id="tA5Uz_ItL0AC_Jkjv0OO-1" value="Users" style="rounded=0;whiteSpace=wrap;html=1;" parent="1" vertex="1">
          <mxGeometry x="-260" y="240" width="120" height="50" as="geometry" />
        </mxCell>
        <mxCell id="tA5Uz_ItL0AC_Jkjv0OO-3" value="email" style="ellipse;whiteSpace=wrap;html=1;" parent="1" vertex="1">
          <mxGeometry x="-320" y="130" width="75" height="40" as="geometry" />
        </mxCell>
        <mxCell id="tA5Uz_ItL0AC_Jkjv0OO-4" value="password" style="ellipse;whiteSpace=wrap;html=1;" parent="1" vertex="1">
          <mxGeometry x="-380" y="190" width="75" height="40" as="geometry" />
        </mxCell>
        <mxCell id="tA5Uz_ItL0AC_Jkjv0OO-5" value="&lt;u&gt;user_id&lt;/u&gt;" style="ellipse;whiteSpace=wrap;html=1;" parent="1" vertex="1">
          <mxGeometry x="-420" y="230" width="75" height="40" as="geometry" />
        </mxCell>
        <mxCell id="tA5Uz_ItL0AC_Jkjv0OO-6" value="name" style="ellipse;whiteSpace=wrap;html=1;" parent="1" vertex="1">
          <mxGeometry x="-215" y="120" width="75" height="40" as="geometry" />
        </mxCell>
        <mxCell id="tA5Uz_ItL0AC_Jkjv0OO-14" value="" style="endArrow=none;html=1;rounded=0;entryX=0.5;entryY=1;entryDx=0;entryDy=0;exitX=0.25;exitY=0;exitDx=0;exitDy=0;" parent="1" source="tA5Uz_ItL0AC_Jkjv0OO-1" target="tA5Uz_ItL0AC_Jkjv0OO-3" edge="1">
          <mxGeometry width="50" height="50" relative="1" as="geometry">
            <mxPoint x="-174" y="156" as="sourcePoint" />
            <mxPoint x="-212" y="110" as="targetPoint" />
          </mxGeometry>
        </mxCell>
        <mxCell id="tA5Uz_ItL0AC_Jkjv0OO-15" value="" style="endArrow=none;html=1;rounded=0;entryX=1;entryY=1;entryDx=0;entryDy=0;exitX=0;exitY=0;exitDx=0;exitDy=0;" parent="1" source="tA5Uz_ItL0AC_Jkjv0OO-1" target="tA5Uz_ItL0AC_Jkjv0OO-4" edge="1">
          <mxGeometry width="50" height="50" relative="1" as="geometry">
            <mxPoint x="-164" y="166" as="sourcePoint" />
            <mxPoint x="-202" y="120" as="targetPoint" />
          </mxGeometry>
        </mxCell>
        <mxCell id="tA5Uz_ItL0AC_Jkjv0OO-16" value="" style="endArrow=none;html=1;rounded=0;entryX=1;entryY=0.5;entryDx=0;entryDy=0;exitX=0;exitY=0.25;exitDx=0;exitDy=0;" parent="1" source="tA5Uz_ItL0AC_Jkjv0OO-1" target="tA5Uz_ItL0AC_Jkjv0OO-5" edge="1">
          <mxGeometry width="50" height="50" relative="1" as="geometry">
            <mxPoint x="-154" y="176" as="sourcePoint" />
            <mxPoint x="-192" y="130" as="targetPoint" />
          </mxGeometry>
        </mxCell>
        <mxCell id="tA5Uz_ItL0AC_Jkjv0OO-18" value="" style="endArrow=none;html=1;rounded=0;entryX=0.5;entryY=1;entryDx=0;entryDy=0;exitX=0.5;exitY=0;exitDx=0;exitDy=0;" parent="1" source="tA5Uz_ItL0AC_Jkjv0OO-1" target="tA5Uz_ItL0AC_Jkjv0OO-6" edge="1">
          <mxGeometry width="50" height="50" relative="1" as="geometry">
            <mxPoint x="-144" y="186" as="sourcePoint" />
            <mxPoint x="-182" y="140" as="targetPoint" />
          </mxGeometry>
        </mxCell>
        <mxCell id="tA5Uz_ItL0AC_Jkjv0OO-20" value="Admin" style="rounded=0;whiteSpace=wrap;html=1;" parent="1" vertex="1">
          <mxGeometry x="250" y="240" width="120" height="50" as="geometry" />
        </mxCell>
        <mxCell id="tA5Uz_ItL0AC_Jkjv0OO-46" value="manages" style="rhombus;whiteSpace=wrap;html=1;" parent="1" vertex="1">
          <mxGeometry x="270" y="470" width="80" height="80" as="geometry" />
        </mxCell>
        <mxCell id="tA5Uz_ItL0AC_Jkjv0OO-47" value="" style="endArrow=none;html=1;rounded=0;entryX=0.5;entryY=0;entryDx=0;entryDy=0;exitX=0.5;exitY=1;exitDx=0;exitDy=0;" parent="1" source="tA5Uz_ItL0AC_Jkjv0OO-20" target="tA5Uz_ItL0AC_Jkjv0OO-46" edge="1">
          <mxGeometry width="50" height="50" relative="1" as="geometry">
            <mxPoint x="260" y="275" as="sourcePoint" />
            <mxPoint x="70" y="275" as="targetPoint" />
          </mxGeometry>
        </mxCell>
        <mxCell id="_jzDKBRbg1718fUS8csa-8" value="1" style="edgeLabel;html=1;align=center;verticalAlign=middle;resizable=0;points=[];" parent="tA5Uz_ItL0AC_Jkjv0OO-47" vertex="1" connectable="0">
          <mxGeometry x="0.4611" relative="1" as="geometry">
            <mxPoint as="offset" />
          </mxGeometry>
        </mxCell>
        <mxCell id="tA5Uz_ItL0AC_Jkjv0OO-48" value="views" style="rhombus;whiteSpace=wrap;html=1;" parent="1" vertex="1">
          <mxGeometry x="-128.75" y="340" width="80" height="80" as="geometry" />
        </mxCell>
        <mxCell id="tA5Uz_ItL0AC_Jkjv0OO-50" value="" style="endArrow=none;html=1;rounded=0;entryX=1;entryY=1;entryDx=0;entryDy=0;exitX=0.5;exitY=0;exitDx=0;exitDy=0;" parent="1" source="tA5Uz_ItL0AC_Jkjv0OO-48" target="tA5Uz_ItL0AC_Jkjv0OO-1" edge="1">
          <mxGeometry width="50" height="50" relative="1" as="geometry">
            <mxPoint x="-90" y="340" as="sourcePoint" />
            <mxPoint x="-130" y="290" as="targetPoint" />
            <Array as="points">
              <mxPoint x="-90" y="320" />
              <mxPoint x="-140" y="320" />
            </Array>
          </mxGeometry>
        </mxCell>
        <mxCell id="_jzDKBRbg1718fUS8csa-32" value="1" style="edgeLabel;html=1;align=center;verticalAlign=middle;resizable=0;points=[];" parent="tA5Uz_ItL0AC_Jkjv0OO-50" vertex="1" connectable="0">
          <mxGeometry x="-0.6923" relative="1" as="geometry">
            <mxPoint as="offset" />
          </mxGeometry>
        </mxCell>
        <mxCell id="tA5Uz_ItL0AC_Jkjv0OO-51" value="contacts" style="rounded=0;whiteSpace=wrap;html=1;" parent="1" vertex="1">
          <mxGeometry x="-60" y="760" width="120" height="50" as="geometry" />
        </mxCell>
        <mxCell id="tA5Uz_ItL0AC_Jkjv0OO-53" value="" style="endArrow=none;html=1;rounded=0;exitX=0.5;exitY=0;exitDx=0;exitDy=0;entryX=1;entryY=0.5;entryDx=0;entryDy=0;" parent="1" source="tA5Uz_ItL0AC_Jkjv0OO-51" target="tA5Uz_ItL0AC_Jkjv0OO-48" edge="1">
          <mxGeometry width="50" height="50" relative="1" as="geometry">
            <mxPoint x="70" y="409.63" as="sourcePoint" />
            <mxPoint x="-30" y="420" as="targetPoint" />
            <Array as="points">
              <mxPoint y="380" />
            </Array>
          </mxGeometry>
        </mxCell>
        <mxCell id="_jzDKBRbg1718fUS8csa-33" value="M" style="edgeLabel;html=1;align=center;verticalAlign=middle;resizable=0;points=[];" parent="tA5Uz_ItL0AC_Jkjv0OO-53" vertex="1" connectable="0">
          <mxGeometry x="-0.2833" relative="1" as="geometry">
            <mxPoint as="offset" />
          </mxGeometry>
        </mxCell>
        <mxCell id="tA5Uz_ItL0AC_Jkjv0OO-54" value="" style="endArrow=none;html=1;rounded=0;exitX=0;exitY=0.5;exitDx=0;exitDy=0;entryX=0.75;entryY=0;entryDx=0;entryDy=0;" parent="1" source="tA5Uz_ItL0AC_Jkjv0OO-46" target="tA5Uz_ItL0AC_Jkjv0OO-51" edge="1">
          <mxGeometry width="50" height="50" relative="1" as="geometry">
            <mxPoint x="240" y="509.38" as="sourcePoint" />
            <mxPoint x="40" y="510" as="targetPoint" />
            <Array as="points">
              <mxPoint x="30" y="510" />
            </Array>
          </mxGeometry>
        </mxCell>
        <mxCell id="_jzDKBRbg1718fUS8csa-9" value="M" style="edgeLabel;html=1;align=center;verticalAlign=middle;resizable=0;points=[];" parent="tA5Uz_ItL0AC_Jkjv0OO-54" vertex="1" connectable="0">
          <mxGeometry x="-0.7916" relative="1" as="geometry">
            <mxPoint as="offset" />
          </mxGeometry>
        </mxCell>
        <mxCell id="tA5Uz_ItL0AC_Jkjv0OO-56" value="" style="endArrow=none;html=1;rounded=0;entryX=0.25;entryY=1;entryDx=0;entryDy=0;exitX=0.5;exitY=0;exitDx=0;exitDy=0;" parent="1" source="_jzDKBRbg1718fUS8csa-11" target="tA5Uz_ItL0AC_Jkjv0OO-51" edge="1">
          <mxGeometry width="50" height="50" relative="1" as="geometry">
            <mxPoint y="820" as="sourcePoint" />
            <mxPoint x="-50" y="710" as="targetPoint" />
          </mxGeometry>
        </mxCell>
        <mxCell id="tA5Uz_ItL0AC_Jkjv0OO-64" value="" style="endArrow=none;html=1;rounded=0;exitX=1;exitY=1;exitDx=0;exitDy=0;entryX=1;entryY=0.5;entryDx=0;entryDy=0;" parent="1" source="tA5Uz_ItL0AC_Jkjv0OO-20" target="tA5Uz_ItL0AC_Jkjv0OO-69" edge="1">
          <mxGeometry width="50" height="50" relative="1" as="geometry">
            <mxPoint x="370" y="390" as="sourcePoint" />
            <mxPoint x="370" y="660" as="targetPoint" />
            <Array as="points">
              <mxPoint x="370" y="785" />
            </Array>
          </mxGeometry>
        </mxCell>
        <mxCell id="_jzDKBRbg1718fUS8csa-27" value="1" style="edgeLabel;html=1;align=center;verticalAlign=middle;resizable=0;points=[];" parent="tA5Uz_ItL0AC_Jkjv0OO-64" vertex="1" connectable="0">
          <mxGeometry x="0.188" relative="1" as="geometry">
            <mxPoint as="offset" />
          </mxGeometry>
        </mxCell>
        <mxCell id="tA5Uz_ItL0AC_Jkjv0OO-65" value="applies for" style="rhombus;whiteSpace=wrap;html=1;" parent="1" vertex="1">
          <mxGeometry x="-270" y="510" width="80" height="80" as="geometry" />
        </mxCell>
        <mxCell id="tA5Uz_ItL0AC_Jkjv0OO-66" value="" style="endArrow=none;html=1;rounded=0;entryX=0.25;entryY=1;entryDx=0;entryDy=0;exitX=0.5;exitY=0;exitDx=0;exitDy=0;" parent="1" source="tA5Uz_ItL0AC_Jkjv0OO-65" target="tA5Uz_ItL0AC_Jkjv0OO-1" edge="1">
          <mxGeometry width="50" height="50" relative="1" as="geometry">
            <mxPoint x="-230" y="400" as="sourcePoint" />
            <mxPoint x="-230" y="310" as="targetPoint" />
          </mxGeometry>
        </mxCell>
        <mxCell id="_jzDKBRbg1718fUS8csa-7" value="1" style="edgeLabel;html=1;align=center;verticalAlign=middle;resizable=0;points=[];" parent="tA5Uz_ItL0AC_Jkjv0OO-66" vertex="1" connectable="0">
          <mxGeometry x="-0.6744" y="-3" relative="1" as="geometry">
            <mxPoint as="offset" />
          </mxGeometry>
        </mxCell>
        <mxCell id="tA5Uz_ItL0AC_Jkjv0OO-68" value="" style="endArrow=none;html=1;rounded=0;entryX=0.5;entryY=1;entryDx=0;entryDy=0;exitX=0;exitY=0.5;exitDx=0;exitDy=0;" parent="1" source="tA5Uz_ItL0AC_Jkjv0OO-51" target="tA5Uz_ItL0AC_Jkjv0OO-65" edge="1">
          <mxGeometry width="50" height="50" relative="1" as="geometry">
            <mxPoint x="-230" y="670" as="sourcePoint" />
            <mxPoint x="-220" y="400" as="targetPoint" />
            <Array as="points">
              <mxPoint x="-230" y="785" />
            </Array>
          </mxGeometry>
        </mxCell>
        <mxCell id="_jzDKBRbg1718fUS8csa-6" value="M" style="edgeLabel;html=1;align=center;verticalAlign=middle;resizable=0;points=[];" parent="tA5Uz_ItL0AC_Jkjv0OO-68" vertex="1" connectable="0">
          <mxGeometry x="0.8752" y="1" relative="1" as="geometry">
            <mxPoint as="offset" />
          </mxGeometry>
        </mxCell>
        <mxCell id="tA5Uz_ItL0AC_Jkjv0OO-69" value="approves/&lt;br&gt;declines" style="rhombus;whiteSpace=wrap;html=1;" parent="1" vertex="1">
          <mxGeometry x="215" y="745" width="80" height="80" as="geometry" />
        </mxCell>
        <mxCell id="tA5Uz_ItL0AC_Jkjv0OO-70" value="" style="endArrow=none;html=1;rounded=0;entryX=1;entryY=0.5;entryDx=0;entryDy=0;exitX=0;exitY=0.5;exitDx=0;exitDy=0;" parent="1" source="tA5Uz_ItL0AC_Jkjv0OO-69" target="tA5Uz_ItL0AC_Jkjv0OO-51" edge="1">
          <mxGeometry width="50" height="50" relative="1" as="geometry">
            <mxPoint x="250" y="680" as="sourcePoint" />
            <mxPoint x="60" y="680" as="targetPoint" />
          </mxGeometry>
        </mxCell>
        <mxCell id="_jzDKBRbg1718fUS8csa-28" value="M" style="edgeLabel;html=1;align=center;verticalAlign=middle;resizable=0;points=[];" parent="tA5Uz_ItL0AC_Jkjv0OO-70" vertex="1" connectable="0">
          <mxGeometry x="-0.6831" y="-2" relative="1" as="geometry">
            <mxPoint as="offset" />
          </mxGeometry>
        </mxCell>
        <mxCell id="tA5Uz_ItL0AC_Jkjv0OO-71" value="Rates/&lt;br&gt;comment" style="rhombus;whiteSpace=wrap;html=1;" parent="1" vertex="1">
          <mxGeometry x="-210" y="560" width="80" height="80" as="geometry" />
        </mxCell>
        <mxCell id="tA5Uz_ItL0AC_Jkjv0OO-73" value="" style="endArrow=none;html=1;rounded=0;entryX=0.75;entryY=1;entryDx=0;entryDy=0;exitX=0.5;exitY=0;exitDx=0;exitDy=0;" parent="1" source="tA5Uz_ItL0AC_Jkjv0OO-71" target="tA5Uz_ItL0AC_Jkjv0OO-1" edge="1">
          <mxGeometry width="50" height="50" relative="1" as="geometry">
            <mxPoint x="-220" y="420" as="sourcePoint" />
            <mxPoint x="-220" y="300" as="targetPoint" />
          </mxGeometry>
        </mxCell>
        <mxCell id="_jzDKBRbg1718fUS8csa-30" value="1" style="edgeLabel;html=1;align=center;verticalAlign=middle;resizable=0;points=[];" parent="tA5Uz_ItL0AC_Jkjv0OO-73" vertex="1" connectable="0">
          <mxGeometry x="-0.6908" y="-1" relative="1" as="geometry">
            <mxPoint as="offset" />
          </mxGeometry>
        </mxCell>
        <mxCell id="tA5Uz_ItL0AC_Jkjv0OO-74" value="" style="endArrow=none;html=1;rounded=0;entryX=1;entryY=0.5;entryDx=0;entryDy=0;exitX=0.25;exitY=0;exitDx=0;exitDy=0;" parent="1" source="tA5Uz_ItL0AC_Jkjv0OO-51" target="tA5Uz_ItL0AC_Jkjv0OO-71" edge="1">
          <mxGeometry width="50" height="50" relative="1" as="geometry">
            <mxPoint x="-40" y="630" as="sourcePoint" />
            <mxPoint x="-220" y="600" as="targetPoint" />
            <Array as="points">
              <mxPoint x="-30" y="600" />
            </Array>
          </mxGeometry>
        </mxCell>
        <mxCell id="_jzDKBRbg1718fUS8csa-31" value="M" style="edgeLabel;html=1;align=center;verticalAlign=middle;resizable=0;points=[];" parent="tA5Uz_ItL0AC_Jkjv0OO-74" vertex="1" connectable="0">
          <mxGeometry x="0.5408" y="-1" relative="1" as="geometry">
            <mxPoint as="offset" />
          </mxGeometry>
        </mxCell>
        <mxCell id="tA5Uz_ItL0AC_Jkjv0OO-82" value="iglink" style="ellipse;whiteSpace=wrap;html=1;" parent="1" vertex="1">
          <mxGeometry x="-295" y="880" width="97.5" height="40" as="geometry" />
        </mxCell>
        <mxCell id="tA5Uz_ItL0AC_Jkjv0OO-83" value="fblink" style="ellipse;whiteSpace=wrap;html=1;" parent="1" vertex="1">
          <mxGeometry x="-276.25" y="940" width="97.5" height="40" as="geometry" />
        </mxCell>
        <mxCell id="tA5Uz_ItL0AC_Jkjv0OO-84" value="email" style="ellipse;whiteSpace=wrap;html=1;" parent="1" vertex="1">
          <mxGeometry x="-116.25000000000001" y="1070" width="73.13" height="30" as="geometry" />
        </mxCell>
        <mxCell id="tA5Uz_ItL0AC_Jkjv0OO-85" value="phoneno" style="ellipse;whiteSpace=wrap;html=1;" parent="1" vertex="1">
          <mxGeometry x="-36.25" y="1070" width="85.31" height="35" as="geometry" />
        </mxCell>
        <mxCell id="tA5Uz_ItL0AC_Jkjv0OO-86" value="weblink" style="ellipse;whiteSpace=wrap;html=1;" parent="1" vertex="1">
          <mxGeometry x="-178.75" y="1040" width="73.13" height="30" as="geometry" />
        </mxCell>
        <mxCell id="tA5Uz_ItL0AC_Jkjv0OO-87" value="" style="endArrow=none;html=1;rounded=0;entryX=0;entryY=1;entryDx=0;entryDy=0;exitX=1;exitY=0.5;exitDx=0;exitDy=0;" parent="1" source="tA5Uz_ItL0AC_Jkjv0OO-82" target="tA5Uz_ItL0AC_Jkjv0OO-51" edge="1">
          <mxGeometry width="50" height="50" relative="1" as="geometry">
            <mxPoint x="10" y="850" as="sourcePoint" />
            <mxPoint x="10" y="700" as="targetPoint" />
          </mxGeometry>
        </mxCell>
        <mxCell id="tA5Uz_ItL0AC_Jkjv0OO-88" value="" style="endArrow=none;html=1;rounded=0;entryX=0.25;entryY=1;entryDx=0;entryDy=0;exitX=0.5;exitY=0;exitDx=0;exitDy=0;" parent="1" source="tA5Uz_ItL0AC_Jkjv0OO-83" target="tA5Uz_ItL0AC_Jkjv0OO-51" edge="1">
          <mxGeometry width="50" height="50" relative="1" as="geometry">
            <mxPoint x="-71" y="720" as="sourcePoint" />
            <mxPoint x="-50" y="700" as="targetPoint" />
          </mxGeometry>
        </mxCell>
        <mxCell id="tA5Uz_ItL0AC_Jkjv0OO-89" value="" style="endArrow=none;html=1;rounded=0;entryX=0.5;entryY=1;entryDx=0;entryDy=0;exitX=0.5;exitY=0;exitDx=0;exitDy=0;" parent="1" source="tA5Uz_ItL0AC_Jkjv0OO-86" target="tA5Uz_ItL0AC_Jkjv0OO-51" edge="1">
          <mxGeometry width="50" height="50" relative="1" as="geometry">
            <mxPoint x="-59" y="765" as="sourcePoint" />
            <mxPoint x="-20" y="700" as="targetPoint" />
          </mxGeometry>
        </mxCell>
        <mxCell id="tA5Uz_ItL0AC_Jkjv0OO-90" value="" style="endArrow=none;html=1;rounded=0;entryX=0.5;entryY=1;entryDx=0;entryDy=0;exitX=0.5;exitY=0;exitDx=0;exitDy=0;" parent="1" source="tA5Uz_ItL0AC_Jkjv0OO-84" target="tA5Uz_ItL0AC_Jkjv0OO-51" edge="1">
          <mxGeometry width="50" height="50" relative="1" as="geometry">
            <mxPoint x="53" y="765" as="sourcePoint" />
            <mxPoint x="40" y="700" as="targetPoint" />
          </mxGeometry>
        </mxCell>
        <mxCell id="tA5Uz_ItL0AC_Jkjv0OO-91" value="" style="endArrow=none;html=1;rounded=0;entryX=0.75;entryY=1;entryDx=0;entryDy=0;exitX=0.5;exitY=0;exitDx=0;exitDy=0;" parent="1" source="tA5Uz_ItL0AC_Jkjv0OO-85" target="tA5Uz_ItL0AC_Jkjv0OO-51" edge="1">
          <mxGeometry width="50" height="50" relative="1" as="geometry">
            <mxPoint x="102" y="755" as="sourcePoint" />
            <mxPoint x="70" y="700" as="targetPoint" />
          </mxGeometry>
        </mxCell>
        <mxCell id="_jzDKBRbg1718fUS8csa-1" value="user_type" style="ellipse;whiteSpace=wrap;html=1;" parent="1" vertex="1">
          <mxGeometry x="-135" y="120" width="75" height="40" as="geometry" />
        </mxCell>
        <mxCell id="_jzDKBRbg1718fUS8csa-2" value="" style="endArrow=none;html=1;rounded=0;entryX=0.5;entryY=1;entryDx=0;entryDy=0;exitX=1;exitY=0;exitDx=0;exitDy=0;" parent="1" source="tA5Uz_ItL0AC_Jkjv0OO-1" target="_jzDKBRbg1718fUS8csa-1" edge="1">
          <mxGeometry width="50" height="50" relative="1" as="geometry">
            <mxPoint x="-190" y="250" as="sourcePoint" />
            <mxPoint x="-167" y="170" as="targetPoint" />
          </mxGeometry>
        </mxCell>
        <mxCell id="_jzDKBRbg1718fUS8csa-11" value="&lt;u&gt;c_id&lt;/u&gt;" style="ellipse;whiteSpace=wrap;html=1;" parent="1" vertex="1">
          <mxGeometry x="-242.5" y="990" width="97.5" height="40" as="geometry" />
        </mxCell>
        <mxCell id="_jzDKBRbg1718fUS8csa-13" value="designation" style="ellipse;whiteSpace=wrap;html=1;" parent="1" vertex="1">
          <mxGeometry x="23.75" y="1105" width="85.31" height="35" as="geometry" />
        </mxCell>
        <mxCell id="_jzDKBRbg1718fUS8csa-14" value="" style="endArrow=none;html=1;rounded=0;entryX=0.75;entryY=1;entryDx=0;entryDy=0;exitX=0.5;exitY=0;exitDx=0;exitDy=0;" parent="1" source="_jzDKBRbg1718fUS8csa-13" target="tA5Uz_ItL0AC_Jkjv0OO-51" edge="1">
          <mxGeometry width="50" height="50" relative="1" as="geometry">
            <mxPoint x="192" y="765" as="sourcePoint" />
            <mxPoint x="120" y="700" as="targetPoint" />
          </mxGeometry>
        </mxCell>
        <mxCell id="_jzDKBRbg1718fUS8csa-15" value="name" style="ellipse;whiteSpace=wrap;html=1;" parent="1" vertex="1">
          <mxGeometry x="133.75" y="1105" width="85.31" height="35" as="geometry" />
        </mxCell>
        <mxCell id="_jzDKBRbg1718fUS8csa-16" value="" style="endArrow=none;html=1;rounded=0;entryX=1;entryY=1;entryDx=0;entryDy=0;exitX=0.5;exitY=0;exitDx=0;exitDy=0;" parent="1" source="_jzDKBRbg1718fUS8csa-15" target="tA5Uz_ItL0AC_Jkjv0OO-51" edge="1">
          <mxGeometry width="50" height="50" relative="1" as="geometry">
            <mxPoint x="282" y="755" as="sourcePoint" />
            <mxPoint x="120" y="680" as="targetPoint" />
          </mxGeometry>
        </mxCell>
        <mxCell id="_jzDKBRbg1718fUS8csa-17" value="location" style="ellipse;whiteSpace=wrap;html=1;" parent="1" vertex="1">
          <mxGeometry x="163.43999999999997" y="970" width="85.31" height="35" as="geometry" />
        </mxCell>
        <mxCell id="_jzDKBRbg1718fUS8csa-18" value="" style="endArrow=none;html=1;rounded=0;entryX=1;entryY=1;entryDx=0;entryDy=0;exitX=0.5;exitY=0;exitDx=0;exitDy=0;" parent="1" source="_jzDKBRbg1718fUS8csa-17" target="tA5Uz_ItL0AC_Jkjv0OO-51" edge="1">
          <mxGeometry width="50" height="50" relative="1" as="geometry">
            <mxPoint x="354.5" y="715" as="sourcePoint" />
            <mxPoint x="132.5" y="650" as="targetPoint" />
          </mxGeometry>
        </mxCell>
        <mxCell id="_jzDKBRbg1718fUS8csa-19" value="description" style="ellipse;whiteSpace=wrap;html=1;" parent="1" vertex="1">
          <mxGeometry x="248.44000000000005" y="935" width="85.31" height="35" as="geometry" />
        </mxCell>
        <mxCell id="_jzDKBRbg1718fUS8csa-20" value="" style="endArrow=none;html=1;rounded=0;entryX=1;entryY=1;entryDx=0;entryDy=0;exitX=0.5;exitY=0;exitDx=0;exitDy=0;" parent="1" source="_jzDKBRbg1718fUS8csa-19" target="tA5Uz_ItL0AC_Jkjv0OO-51" edge="1">
          <mxGeometry width="50" height="50" relative="1" as="geometry">
            <mxPoint x="394.5" y="665" as="sourcePoint" />
            <mxPoint x="100" y="640" as="targetPoint" />
          </mxGeometry>
        </mxCell>
        <mxCell id="_jzDKBRbg1718fUS8csa-22" value="photo" style="ellipse;whiteSpace=wrap;html=1;" parent="1" vertex="1">
          <mxGeometry x="-86.25000000000001" y="1110" width="73.13" height="30" as="geometry" />
        </mxCell>
        <mxCell id="_jzDKBRbg1718fUS8csa-23" value="" style="endArrow=none;html=1;rounded=0;entryX=0.75;entryY=1;entryDx=0;entryDy=0;exitX=0.5;exitY=0;exitDx=0;exitDy=0;" parent="1" source="_jzDKBRbg1718fUS8csa-22" target="tA5Uz_ItL0AC_Jkjv0OO-51" edge="1">
          <mxGeometry width="50" height="50" relative="1" as="geometry">
            <mxPoint x="83" y="830" as="sourcePoint" />
            <mxPoint x="30" y="755" as="targetPoint" />
          </mxGeometry>
        </mxCell>
        <mxCell id="_jzDKBRbg1718fUS8csa-24" value="document" style="ellipse;whiteSpace=wrap;html=1;" parent="1" vertex="1">
          <mxGeometry x="63.75" y="1060" width="85.31" height="35" as="geometry" />
        </mxCell>
        <mxCell id="_jzDKBRbg1718fUS8csa-25" value="" style="endArrow=none;html=1;rounded=0;entryX=0.75;entryY=1;entryDx=0;entryDy=0;exitX=0.5;exitY=0;exitDx=0;exitDy=0;" parent="1" source="_jzDKBRbg1718fUS8csa-24" target="tA5Uz_ItL0AC_Jkjv0OO-51" edge="1">
          <mxGeometry width="50" height="50" relative="1" as="geometry">
            <mxPoint x="304.35" y="830" as="sourcePoint" />
            <mxPoint x="82.35" y="765" as="targetPoint" />
          </mxGeometry>
        </mxCell>
        <mxCell id="_jzDKBRbg1718fUS8csa-35" value="status" style="ellipse;whiteSpace=wrap;html=1;" parent="1" vertex="1">
          <mxGeometry x="248.44000000000005" y="990" width="85.31" height="35" as="geometry" />
        </mxCell>
        <mxCell id="_jzDKBRbg1718fUS8csa-36" value="" style="endArrow=none;html=1;rounded=0;exitX=0.5;exitY=0;exitDx=0;exitDy=0;entryX=1;entryY=1;entryDx=0;entryDy=0;" parent="1" source="_jzDKBRbg1718fUS8csa-35" target="tA5Uz_ItL0AC_Jkjv0OO-51" edge="1">
          <mxGeometry width="50" height="50" relative="1" as="geometry">
            <mxPoint x="414.5" y="705" as="sourcePoint" />
            <mxPoint x="200" y="690" as="targetPoint" />
          </mxGeometry>
        </mxCell>
        <mxCell id="T-z-SqRcn6Ss8TcAAw-w-1" value="phone_number" style="ellipse;whiteSpace=wrap;html=1;" vertex="1" parent="1">
          <mxGeometry x="-460" y="265" width="105" height="40" as="geometry" />
        </mxCell>
        <mxCell id="T-z-SqRcn6Ss8TcAAw-w-2" value="" style="endArrow=none;html=1;rounded=0;entryX=1;entryY=0.5;entryDx=0;entryDy=0;exitX=0;exitY=0.5;exitDx=0;exitDy=0;" edge="1" parent="1" target="T-z-SqRcn6Ss8TcAAw-w-1" source="tA5Uz_ItL0AC_Jkjv0OO-1">
          <mxGeometry width="50" height="50" relative="1" as="geometry">
            <mxPoint x="-250" y="288" as="sourcePoint" />
            <mxPoint x="-182" y="140" as="targetPoint" />
          </mxGeometry>
        </mxCell>
        <mxCell id="T-z-SqRcn6Ss8TcAAw-w-3" value="" style="endArrow=none;html=1;rounded=0;entryX=0;entryY=0.5;entryDx=0;entryDy=0;exitX=1;exitY=0.5;exitDx=0;exitDy=0;" edge="1" parent="1" source="T-z-SqRcn6Ss8TcAAw-w-4" target="tA5Uz_ItL0AC_Jkjv0OO-20">
          <mxGeometry width="50" height="50" relative="1" as="geometry">
            <mxPoint x="70" y="265" as="sourcePoint" />
            <mxPoint x="-87" y="170" as="targetPoint" />
          </mxGeometry>
        </mxCell>
        <mxCell id="T-z-SqRcn6Ss8TcAAw-w-4" value="has" style="rhombus;whiteSpace=wrap;html=1;" vertex="1" parent="1">
          <mxGeometry x="3.1300000000000026" y="225" width="80" height="80" as="geometry" />
        </mxCell>
        <mxCell id="T-z-SqRcn6Ss8TcAAw-w-5" value="" style="endArrow=none;html=1;rounded=0;entryX=1;entryY=0.5;entryDx=0;entryDy=0;exitX=0;exitY=0.5;exitDx=0;exitDy=0;" edge="1" parent="1" source="T-z-SqRcn6Ss8TcAAw-w-4" target="tA5Uz_ItL0AC_Jkjv0OO-1">
          <mxGeometry width="50" height="50" relative="1" as="geometry">
            <mxPoint x="75" y="275" as="sourcePoint" />
            <mxPoint x="260" y="275" as="targetPoint" />
          </mxGeometry>
        </mxCell>
        <mxCell id="T-z-SqRcn6Ss8TcAAw-w-6" value="&lt;u&gt;user_id&lt;/u&gt;" style="ellipse;whiteSpace=wrap;html=1;" vertex="1" parent="1">
          <mxGeometry x="178.44" y="1065" width="85.31" height="35" as="geometry" />
        </mxCell>
        <mxCell id="T-z-SqRcn6Ss8TcAAw-w-7" value="" style="endArrow=none;html=1;rounded=0;entryX=1;entryY=1;entryDx=0;entryDy=0;exitX=0.5;exitY=0;exitDx=0;exitDy=0;" edge="1" parent="1" source="T-z-SqRcn6Ss8TcAAw-w-6" target="tA5Uz_ItL0AC_Jkjv0OO-51">
          <mxGeometry width="50" height="50" relative="1" as="geometry">
            <mxPoint x="372" y="825" as="sourcePoint" />
            <mxPoint x="150" y="760" as="targetPoint" />
          </mxGeometry>
        </mxCell>
        <mxCell id="T-z-SqRcn6Ss8TcAAw-w-8" value="sends work request" style="rhombus;whiteSpace=wrap;html=1;" vertex="1" parent="1">
          <mxGeometry x="-340" y="560" width="80" height="80" as="geometry" />
        </mxCell>
        <mxCell id="T-z-SqRcn6Ss8TcAAw-w-9" value="" style="endArrow=none;html=1;rounded=0;exitX=0;exitY=1;exitDx=0;exitDy=0;entryX=0.5;entryY=0;entryDx=0;entryDy=0;" edge="1" parent="1" source="tA5Uz_ItL0AC_Jkjv0OO-1" target="T-z-SqRcn6Ss8TcAAw-w-8">
          <mxGeometry width="50" height="50" relative="1" as="geometry">
            <mxPoint x="-270" y="340" as="sourcePoint" />
            <mxPoint x="-320" y="290" as="targetPoint" />
            <Array as="points">
              <mxPoint x="-300" y="290" />
            </Array>
          </mxGeometry>
        </mxCell>
        <mxCell id="T-z-SqRcn6Ss8TcAAw-w-10" value="1" style="edgeLabel;html=1;align=center;verticalAlign=middle;resizable=0;points=[];" vertex="1" connectable="0" parent="T-z-SqRcn6Ss8TcAAw-w-9">
          <mxGeometry x="0.4794" y="2" relative="1" as="geometry">
            <mxPoint as="offset" />
          </mxGeometry>
        </mxCell>
        <mxCell id="T-z-SqRcn6Ss8TcAAw-w-11" value="" style="endArrow=none;html=1;rounded=0;exitX=0.5;exitY=1;exitDx=0;exitDy=0;entryX=0;entryY=0.75;entryDx=0;entryDy=0;" edge="1" parent="1" source="T-z-SqRcn6Ss8TcAAw-w-8" target="tA5Uz_ItL0AC_Jkjv0OO-51">
          <mxGeometry width="50" height="50" relative="1" as="geometry">
            <mxPoint x="-250" y="400" as="sourcePoint" />
            <mxPoint x="-290" y="570" as="targetPoint" />
            <Array as="points">
              <mxPoint x="-300" y="800" />
            </Array>
          </mxGeometry>
        </mxCell>
        <mxCell id="T-z-SqRcn6Ss8TcAAw-w-13" value="M" style="edgeLabel;html=1;align=center;verticalAlign=middle;resizable=0;points=[];" vertex="1" connectable="0" parent="T-z-SqRcn6Ss8TcAAw-w-11">
          <mxGeometry x="0.5983" relative="1" as="geometry">
            <mxPoint as="offset" />
          </mxGeometry>
        </mxCell>
        <mxCell id="T-z-SqRcn6Ss8TcAAw-w-14" value="" style="endArrow=none;html=1;rounded=0;exitX=0.5;exitY=1;exitDx=0;exitDy=0;entryX=0.5;entryY=0;entryDx=0;entryDy=0;" edge="1" parent="1" source="tA5Uz_ItL0AC_Jkjv0OO-48" target="T-z-SqRcn6Ss8TcAAw-w-15">
          <mxGeometry width="50" height="50" relative="1" as="geometry">
            <mxPoint x="13" y="275" as="sourcePoint" />
            <mxPoint x="-89" y="450" as="targetPoint" />
          </mxGeometry>
        </mxCell>
        <mxCell id="T-z-SqRcn6Ss8TcAAw-w-15" value="views" style="rounded=0;whiteSpace=wrap;html=1;" vertex="1" parent="1">
          <mxGeometry x="-118.75" y="440" width="60" height="30" as="geometry" />
        </mxCell>
        <mxCell id="T-z-SqRcn6Ss8TcAAw-w-16" value="" style="endArrow=none;html=1;rounded=0;entryX=0;entryY=1;entryDx=0;entryDy=0;exitX=0.5;exitY=0;exitDx=0;exitDy=0;" edge="1" parent="1" source="T-z-SqRcn6Ss8TcAAw-w-17" target="T-z-SqRcn6Ss8TcAAw-w-15">
          <mxGeometry width="50" height="50" relative="1" as="geometry">
            <mxPoint x="-130" y="480" as="sourcePoint" />
            <mxPoint x="10" y="580" as="targetPoint" />
          </mxGeometry>
        </mxCell>
        <mxCell id="T-z-SqRcn6Ss8TcAAw-w-17" value="&lt;u&gt;user_id&lt;/u&gt;" style="ellipse;whiteSpace=wrap;html=1;" vertex="1" parent="1">
          <mxGeometry x="-162.5" y="490" width="75" height="30" as="geometry" />
        </mxCell>
        <mxCell id="T-z-SqRcn6Ss8TcAAw-w-18" value="&lt;u&gt;c_id&lt;/u&gt;" style="ellipse;whiteSpace=wrap;html=1;" vertex="1" parent="1">
          <mxGeometry x="-135" y="530" width="75" height="30" as="geometry" />
        </mxCell>
        <mxCell id="T-z-SqRcn6Ss8TcAAw-w-19" value="" style="endArrow=none;html=1;rounded=0;entryX=0.5;entryY=1;entryDx=0;entryDy=0;exitX=1;exitY=0;exitDx=0;exitDy=0;" edge="1" parent="1" source="T-z-SqRcn6Ss8TcAAw-w-18" target="T-z-SqRcn6Ss8TcAAw-w-15">
          <mxGeometry width="50" height="50" relative="1" as="geometry">
            <mxPoint x="-115" y="500" as="sourcePoint" />
            <mxPoint x="-109" y="480" as="targetPoint" />
          </mxGeometry>
        </mxCell>
        <mxCell id="T-z-SqRcn6Ss8TcAAw-w-20" value="" style="endArrow=none;html=1;rounded=0;entryX=1;entryY=1;entryDx=0;entryDy=0;exitX=0.5;exitY=0;exitDx=0;exitDy=0;" edge="1" parent="1" source="T-z-SqRcn6Ss8TcAAw-w-21" target="T-z-SqRcn6Ss8TcAAw-w-15">
          <mxGeometry width="50" height="50" relative="1" as="geometry">
            <mxPoint x="-42.5" y="480" as="sourcePoint" />
            <mxPoint x="-31.5" y="470" as="targetPoint" />
          </mxGeometry>
        </mxCell>
        <mxCell id="T-z-SqRcn6Ss8TcAAw-w-21" value="view" style="ellipse;whiteSpace=wrap;html=1;" vertex="1" parent="1">
          <mxGeometry x="-75" y="490" width="65" height="30" as="geometry" />
        </mxCell>
        <mxCell id="T-z-SqRcn6Ss8TcAAw-w-22" value="" style="endArrow=none;html=1;rounded=0;entryX=0;entryY=0.5;entryDx=0;entryDy=0;exitX=0.5;exitY=0;exitDx=0;exitDy=0;" edge="1" parent="1" source="T-z-SqRcn6Ss8TcAAw-w-24" target="T-z-SqRcn6Ss8TcAAw-w-8">
          <mxGeometry width="50" height="50" relative="1" as="geometry">
            <mxPoint x="-380" y="670" as="sourcePoint" />
            <mxPoint x="-220" y="530" as="targetPoint" />
            <Array as="points">
              <mxPoint x="-380" y="600" />
            </Array>
          </mxGeometry>
        </mxCell>
        <mxCell id="T-z-SqRcn6Ss8TcAAw-w-24" value="connected" style="rounded=0;whiteSpace=wrap;html=1;" vertex="1" parent="1">
          <mxGeometry x="-420" y="670" width="80" height="40" as="geometry" />
        </mxCell>
        <mxCell id="T-z-SqRcn6Ss8TcAAw-w-26" value="" style="endArrow=none;html=1;rounded=0;entryX=0;entryY=1;entryDx=0;entryDy=0;exitX=0.5;exitY=0;exitDx=0;exitDy=0;" edge="1" parent="1" source="T-z-SqRcn6Ss8TcAAw-w-27" target="T-z-SqRcn6Ss8TcAAw-w-24">
          <mxGeometry width="50" height="50" relative="1" as="geometry">
            <mxPoint x="-440" y="730" as="sourcePoint" />
            <mxPoint x="-340" y="550" as="targetPoint" />
          </mxGeometry>
        </mxCell>
        <mxCell id="T-z-SqRcn6Ss8TcAAw-w-27" value="&lt;u&gt;user_id&lt;/u&gt;" style="ellipse;whiteSpace=wrap;html=1;" vertex="1" parent="1">
          <mxGeometry x="-480" y="730" width="75" height="30" as="geometry" />
        </mxCell>
        <mxCell id="T-z-SqRcn6Ss8TcAAw-w-28" value="&lt;u&gt;c_id&lt;/u&gt;" style="ellipse;whiteSpace=wrap;html=1;" vertex="1" parent="1">
          <mxGeometry x="-430" y="760" width="75" height="30" as="geometry" />
        </mxCell>
        <mxCell id="T-z-SqRcn6Ss8TcAAw-w-29" value="" style="endArrow=none;html=1;rounded=0;entryX=0.25;entryY=1;entryDx=0;entryDy=0;exitX=0.5;exitY=0;exitDx=0;exitDy=0;" edge="1" parent="1" source="T-z-SqRcn6Ss8TcAAw-w-28" target="T-z-SqRcn6Ss8TcAAw-w-24">
          <mxGeometry width="50" height="50" relative="1" as="geometry">
            <mxPoint x="-432" y="740" as="sourcePoint" />
            <mxPoint x="-410" y="720" as="targetPoint" />
          </mxGeometry>
        </mxCell>
        <mxCell id="T-z-SqRcn6Ss8TcAAw-w-30" value="&lt;font style=&quot;font-size: 12px;&quot;&gt;request_status&lt;/font&gt;" style="ellipse;whiteSpace=wrap;html=1;" vertex="1" parent="1">
          <mxGeometry x="-390" y="800" width="85" height="30" as="geometry" />
        </mxCell>
        <mxCell id="T-z-SqRcn6Ss8TcAAw-w-31" value="" style="endArrow=none;html=1;rounded=0;entryX=0.75;entryY=1;entryDx=0;entryDy=0;exitX=0.5;exitY=0;exitDx=0;exitDy=0;" edge="1" parent="1" source="T-z-SqRcn6Ss8TcAAw-w-30" target="T-z-SqRcn6Ss8TcAAw-w-24">
          <mxGeometry width="50" height="50" relative="1" as="geometry">
            <mxPoint x="-382" y="770" as="sourcePoint" />
            <mxPoint x="-390" y="720" as="targetPoint" />
          </mxGeometry>
        </mxCell>
        <mxCell id="T-z-SqRcn6Ss8TcAAw-w-32" value="" style="endArrow=none;html=1;rounded=0;entryX=1;entryY=1;entryDx=0;entryDy=0;exitX=0;exitY=0.5;exitDx=0;exitDy=0;" edge="1" parent="1" source="T-z-SqRcn6Ss8TcAAw-w-33" target="tA5Uz_ItL0AC_Jkjv0OO-1">
          <mxGeometry width="50" height="50" relative="1" as="geometry">
            <mxPoint x="60" y="360" as="sourcePoint" />
            <mxPoint x="-130" y="275" as="targetPoint" />
            <Array as="points">
              <mxPoint x="-40" y="360" />
              <mxPoint x="-40" y="290" />
            </Array>
          </mxGeometry>
        </mxCell>
        <mxCell id="T-z-SqRcn6Ss8TcAAw-w-45" value="1" style="edgeLabel;html=1;align=center;verticalAlign=middle;resizable=0;points=[];" vertex="1" connectable="0" parent="T-z-SqRcn6Ss8TcAAw-w-32">
          <mxGeometry x="-0.526" y="1" relative="1" as="geometry">
            <mxPoint x="-1" as="offset" />
          </mxGeometry>
        </mxCell>
        <mxCell id="T-z-SqRcn6Ss8TcAAw-w-33" value="adds" style="rhombus;whiteSpace=wrap;html=1;" vertex="1" parent="1">
          <mxGeometry x="40" y="320" width="80" height="80" as="geometry" />
        </mxCell>
        <mxCell id="T-z-SqRcn6Ss8TcAAw-w-35" value="" style="endArrow=none;html=1;rounded=0;exitX=1;exitY=0.5;exitDx=0;exitDy=0;entryX=0;entryY=0.5;entryDx=0;entryDy=0;" edge="1" parent="1" source="T-z-SqRcn6Ss8TcAAw-w-33" target="T-z-SqRcn6Ss8TcAAw-w-36">
          <mxGeometry width="50" height="50" relative="1" as="geometry">
            <mxPoint x="150" y="359.57" as="sourcePoint" />
            <mxPoint x="170" y="360" as="targetPoint" />
          </mxGeometry>
        </mxCell>
        <mxCell id="T-z-SqRcn6Ss8TcAAw-w-61" value="M" style="edgeLabel;html=1;align=center;verticalAlign=middle;resizable=0;points=[];" vertex="1" connectable="0" parent="T-z-SqRcn6Ss8TcAAw-w-35">
          <mxGeometry x="-0.2114" relative="1" as="geometry">
            <mxPoint as="offset" />
          </mxGeometry>
        </mxCell>
        <mxCell id="T-z-SqRcn6Ss8TcAAw-w-36" value="works" style="rounded=0;whiteSpace=wrap;html=1;" vertex="1" parent="1">
          <mxGeometry x="170.00000000000003" y="340" width="80" height="40" as="geometry" />
        </mxCell>
        <mxCell id="T-z-SqRcn6Ss8TcAAw-w-37" value="" style="endArrow=none;html=1;rounded=0;entryX=0;entryY=1;entryDx=0;entryDy=0;exitX=0.5;exitY=0;exitDx=0;exitDy=0;" edge="1" parent="1" source="T-z-SqRcn6Ss8TcAAw-w-38" target="T-z-SqRcn6Ss8TcAAw-w-36">
          <mxGeometry width="50" height="50" relative="1" as="geometry">
            <mxPoint x="135" y="400" as="sourcePoint" />
            <mxPoint x="155" y="380" as="targetPoint" />
          </mxGeometry>
        </mxCell>
        <mxCell id="T-z-SqRcn6Ss8TcAAw-w-38" value="&lt;u&gt;user_id&lt;/u&gt;" style="ellipse;whiteSpace=wrap;html=1;" vertex="1" parent="1">
          <mxGeometry x="95" y="400" width="75" height="30" as="geometry" />
        </mxCell>
        <mxCell id="T-z-SqRcn6Ss8TcAAw-w-39" value="" style="endArrow=none;html=1;rounded=0;entryX=0.25;entryY=1;entryDx=0;entryDy=0;exitX=0.5;exitY=0;exitDx=0;exitDy=0;" edge="1" parent="1" source="T-z-SqRcn6Ss8TcAAw-w-40" target="T-z-SqRcn6Ss8TcAAw-w-36">
          <mxGeometry width="50" height="50" relative="1" as="geometry">
            <mxPoint x="165.31" y="440" as="sourcePoint" />
            <mxPoint x="200.31" y="420" as="targetPoint" />
          </mxGeometry>
        </mxCell>
        <mxCell id="T-z-SqRcn6Ss8TcAAw-w-40" value="&lt;u&gt;c_id&lt;/u&gt;" style="ellipse;whiteSpace=wrap;html=1;" vertex="1" parent="1">
          <mxGeometry x="125.31" y="440" width="75" height="30" as="geometry" />
        </mxCell>
        <mxCell id="T-z-SqRcn6Ss8TcAAw-w-41" value="" style="endArrow=none;html=1;rounded=0;entryX=0.5;entryY=1;entryDx=0;entryDy=0;exitX=0.5;exitY=0;exitDx=0;exitDy=0;" edge="1" parent="1" source="T-z-SqRcn6Ss8TcAAw-w-42" target="T-z-SqRcn6Ss8TcAAw-w-36">
          <mxGeometry width="50" height="50" relative="1" as="geometry">
            <mxPoint x="215" y="470" as="sourcePoint" />
            <mxPoint x="239.69" y="410" as="targetPoint" />
          </mxGeometry>
        </mxCell>
        <mxCell id="T-z-SqRcn6Ss8TcAAw-w-42" value="work_desc" style="ellipse;whiteSpace=wrap;html=1;" vertex="1" parent="1">
          <mxGeometry x="189.69" y="460" width="75" height="30" as="geometry" />
        </mxCell>
        <mxCell id="T-z-SqRcn6Ss8TcAAw-w-43" value="" style="endArrow=none;html=1;rounded=0;entryX=1;entryY=1;entryDx=0;entryDy=0;exitX=0.5;exitY=0;exitDx=0;exitDy=0;" edge="1" parent="1" source="T-z-SqRcn6Ss8TcAAw-w-44" target="T-z-SqRcn6Ss8TcAAw-w-36">
          <mxGeometry width="50" height="50" relative="1" as="geometry">
            <mxPoint x="260" y="440" as="sourcePoint" />
            <mxPoint x="284.69" y="380" as="targetPoint" />
          </mxGeometry>
        </mxCell>
        <mxCell id="T-z-SqRcn6Ss8TcAAw-w-44" value="photo" style="ellipse;whiteSpace=wrap;html=1;" vertex="1" parent="1">
          <mxGeometry x="220" y="400" width="75" height="30" as="geometry" />
        </mxCell>
        <mxCell id="T-z-SqRcn6Ss8TcAAw-w-47" value="" style="endArrow=none;html=1;rounded=0;entryX=0.5;entryY=1;entryDx=0;entryDy=0;exitX=0.5;exitY=0;exitDx=0;exitDy=0;" edge="1" parent="1" source="T-z-SqRcn6Ss8TcAAw-w-49" target="tA5Uz_ItL0AC_Jkjv0OO-71">
          <mxGeometry width="50" height="50" relative="1" as="geometry">
            <mxPoint x="-170" y="690" as="sourcePoint" />
            <mxPoint x="120" y="550" as="targetPoint" />
          </mxGeometry>
        </mxCell>
        <mxCell id="T-z-SqRcn6Ss8TcAAw-w-49" value="rating_comment" style="rounded=0;whiteSpace=wrap;html=1;" vertex="1" parent="1">
          <mxGeometry x="-215" y="680" width="90" height="40" as="geometry" />
        </mxCell>
        <mxCell id="T-z-SqRcn6Ss8TcAAw-w-50" value="" style="endArrow=none;html=1;rounded=0;entryX=1;entryY=0;entryDx=0;entryDy=0;exitX=0.5;exitY=1;exitDx=0;exitDy=0;" edge="1" parent="1" source="T-z-SqRcn6Ss8TcAAw-w-51" target="T-z-SqRcn6Ss8TcAAw-w-49">
          <mxGeometry width="50" height="50" relative="1" as="geometry">
            <mxPoint x="-120" y="660" as="sourcePoint" />
            <mxPoint x="-100" y="700" as="targetPoint" />
          </mxGeometry>
        </mxCell>
        <mxCell id="T-z-SqRcn6Ss8TcAAw-w-51" value="&lt;u&gt;user_id&lt;/u&gt;" style="ellipse;whiteSpace=wrap;html=1;" vertex="1" parent="1">
          <mxGeometry x="-145" y="630" width="75" height="30" as="geometry" />
        </mxCell>
        <mxCell id="T-z-SqRcn6Ss8TcAAw-w-52" value="&lt;u&gt;c_id&lt;/u&gt;" style="ellipse;whiteSpace=wrap;html=1;" vertex="1" parent="1">
          <mxGeometry x="-104.37" y="670" width="55.62" height="30" as="geometry" />
        </mxCell>
        <mxCell id="T-z-SqRcn6Ss8TcAAw-w-53" value="" style="endArrow=none;html=1;rounded=0;entryX=1;entryY=0.5;entryDx=0;entryDy=0;exitX=0;exitY=0.5;exitDx=0;exitDy=0;" edge="1" parent="1" source="T-z-SqRcn6Ss8TcAAw-w-52" target="T-z-SqRcn6Ss8TcAAw-w-49">
          <mxGeometry width="50" height="50" relative="1" as="geometry">
            <mxPoint x="-97" y="670" as="sourcePoint" />
            <mxPoint x="-115" y="690" as="targetPoint" />
          </mxGeometry>
        </mxCell>
        <mxCell id="T-z-SqRcn6Ss8TcAAw-w-55" value="rating" style="ellipse;whiteSpace=wrap;html=1;" vertex="1" parent="1">
          <mxGeometry x="-133.75" y="730" width="75" height="30" as="geometry" />
        </mxCell>
        <mxCell id="T-z-SqRcn6Ss8TcAAw-w-56" value="" style="endArrow=none;html=1;rounded=0;entryX=1;entryY=1;entryDx=0;entryDy=0;exitX=0.5;exitY=0;exitDx=0;exitDy=0;" edge="1" parent="1" source="T-z-SqRcn6Ss8TcAAw-w-55" target="T-z-SqRcn6Ss8TcAAw-w-49">
          <mxGeometry width="50" height="50" relative="1" as="geometry">
            <mxPoint x="-94" y="695" as="sourcePoint" />
            <mxPoint x="-115" y="710" as="targetPoint" />
          </mxGeometry>
        </mxCell>
        <mxCell id="T-z-SqRcn6Ss8TcAAw-w-59" value="comment" style="ellipse;whiteSpace=wrap;html=1;" vertex="1" parent="1">
          <mxGeometry x="-220" y="740" width="75" height="30" as="geometry" />
        </mxCell>
        <mxCell id="T-z-SqRcn6Ss8TcAAw-w-60" value="" style="endArrow=none;html=1;rounded=0;entryX=0.25;entryY=1;entryDx=0;entryDy=0;exitX=0.5;exitY=0;exitDx=0;exitDy=0;" edge="1" parent="1" source="T-z-SqRcn6Ss8TcAAw-w-59" target="T-z-SqRcn6Ss8TcAAw-w-49">
          <mxGeometry width="50" height="50" relative="1" as="geometry">
            <mxPoint x="-86" y="740" as="sourcePoint" />
            <mxPoint x="-115" y="730" as="targetPoint" />
          </mxGeometry>
        </mxCell>
      </root>
    </mxGraphModel>
  </diagram>
</mxfile>
